<?xml version="1.0" encoding="utf-8"?>
<!-- Generator: Adobe Illustrator 22.0.0, SVG Export Plug-In . SVG Version: 6.00 Build 0)  -->
<svg version="1.1" id="Layer_1" xmlns="http://www.w3.org/2000/svg" xmlns:xlink="http://www.w3.org/1999/xlink" x="0px" y="0px"
	 viewBox="0 0 512 512" style="enable-background:new 0 0 512 512;" xml:space="preserve">
<style type="text/css">
	.st0{fill:#0C87FA;}
</style>
<path class="st0" d="M511.6,197.6c0-0.8-0.2-1.9-0.5-2.6c-0.8-2.9-2.5-5.5-5.2-7.3l-73.3-50.9V82.2c0-7.2-5.9-13.1-13.1-13.1h-84.3
	l-71.7-49.9c-4.5-3.1-10.4-3.1-14.9,0L176.4,69h-84c-7.2,0-13.1,5.9-13.1,13.1v54L5.7,187c-3.6,2.5-5.6,6.5-5.6,10.6
	c0,0.1,0,0.1,0,0.2l0.4,284.2c0,3.5,1.4,6.8,3.9,9.3c2.5,2.5,5.8,3.8,9.3,3.8c0,0,0,0,0,0l485.4-0.7c7.2,0,13.1-5.9,13.1-13.1
	L511.6,197.6z M432.7,168.7l41.9,29.1L432.7,227V168.7z M256,45.9L289.3,69h-66.8L256,45.9z M167.2,147.7h177.5
	c7.2,0,13.1,5.9,13.1,13.1c0,7.2-5.9,13.1-13.1,13.1H167.2c-7.2,0-13.1-5.9-13.1-13.1C154.1,153.6,160,147.7,167.2,147.7z
	 M167.2,215.9h177.5c7.2,0,13.1,5.9,13.1,13.1c0,7.2-5.9,13.1-13.1,13.1H167.2c-7.2,0-13.1-5.9-13.1-13.1
	C154.1,221.8,160,215.9,167.2,215.9z M79.3,168v59.6l-43.1-29.8L79.3,168z M26.3,222.9l158.7,109.7L26.6,455.3L26.3,222.9z
	 M51.9,468.9l204.3-158.5l203.6,157.9L51.9,468.9z M327.1,332.3l158.3-110l0.3,233.1L327.1,332.3z"/>
</svg>
