<?xml version="1.0" encoding="utf-8"?>
<!-- Generator: Adobe Illustrator 22.0.0, SVG Export Plug-In . SVG Version: 6.00 Build 0)  -->
<svg version="1.1" id="Capa_1" xmlns="http://www.w3.org/2000/svg" xmlns:xlink="http://www.w3.org/1999/xlink" x="0px" y="0px"
	 viewBox="0 0 512 512" style="enable-background:new 0 0 512 512;" xml:space="preserve">
<style type="text/css">
	.st0{fill:#0C87FA;}
</style>
<path class="st0" d="M501,9.1H122.4c-6.1,0-11,4.9-11,11v218.6H11c-6.1,0-11,4.9-11,11v186.4c0,36.8,29.9,66.7,66.7,66.7
	c0.9,0,378.6,0,378.6,0c36.8,0,66.7-29.9,66.7-66.7V20.1C512,14.1,507.1,9.1,501,9.1z M111.4,436.2c0,24.6-20,44.7-44.7,44.7
	C42,480.9,22,460.8,22,436.2V260.8h89.4V436.2z M271.3,334.4l-60.4,66.2c-2.1,2.3-5,3.6-8,3.6c0,0-0.1,0-0.1,0c-3,0-5.9-1.2-8-3.4
	l-24.5-25.9c-4.2-4.4-4-11.4,0.4-15.5c4.4-4.2,11.4-4,15.5,0.4l16.3,17.3l52.4-57.4c4.1-4.5,11.1-4.8,15.5-0.7
	C275.1,322.9,275.4,329.9,271.3,334.4z M271.3,208.3l-60.4,66.2c-2.1,2.3-5,3.6-8,3.6c0,0-0.1,0-0.1,0c-3,0-5.9-1.2-8-3.4
	l-24.5-25.9c-4.2-4.4-4-11.4,0.4-15.5c4.4-4.2,11.4-4,15.5,0.4l16.3,17.3l52.4-57.4c4.1-4.5,11.1-4.8,15.5-0.7
	C275.1,196.9,275.4,203.8,271.3,208.3z M271.3,82.2l-60.4,66.2c-2.1,2.3-5,3.6-8,3.6c0,0-0.1,0-0.1,0c-3,0-5.9-1.2-8-3.4l-24.5-25.9
	c-4.2-4.4-4-11.4,0.4-15.5c4.4-4.2,11.4-4,15.5,0.4l16.3,17.3L255,67.4c4.1-4.5,11.1-4.8,15.5-0.7C275.1,70.8,275.4,77.8,271.3,82.2
	z M437.2,377.8h-141c-6.1,0-11-4.9-11-11c0-6.1,4.9-11,11-11h141c6.1,0,11,4.9,11,11S443.3,377.8,437.2,377.8z M437.2,257h-141
	c-6.1,0-11-4.9-11-11c0-6.1,4.9-11,11-11h141c6.1,0,11,4.9,11,11C448.2,252.1,443.3,257,437.2,257z M437.2,136.2h-141
	c-6.1,0-11-4.9-11-11c0-6.1,4.9-11,11-11h141c6.1,0,11,4.9,11,11C448.2,131.2,443.3,136.2,437.2,136.2z"/>
</svg>
