<?xml version="1.0" encoding="utf-8"?>
<!-- Generator: Adobe Illustrator 22.0.0, SVG Export Plug-In . SVG Version: 6.00 Build 0)  -->
<svg version="1.1" id="Capa_1" xmlns="http://www.w3.org/2000/svg" xmlns:xlink="http://www.w3.org/1999/xlink" x="0px" y="0px"
	 viewBox="0 0 512 512" style="enable-background:new 0 0 512 512;" xml:space="preserve">
<style type="text/css">
	.st0{fill:#0C87FA;}
</style>
<g>
	<g>
		<g>
			<path class="st0" d="M432.9,505.4c-0.2,0-0.3,0-0.5,0H304.9c-5.1,0-9.3-4.2-9.3-9.3V351.4c0-4.2-3.5-7.7-7.7-7.7h-68.1
				c-4.2,0-7.7,3.5-7.7,7.7v144.7c0,5.1-4.2,9.3-9.3,9.3H75c-11.5,0-22.7-4.7-30.9-13c-8.2-8.3-12.6-19.1-12.5-30.5V291.8
				c0-2.5,1-4.8,2.7-6.6L247.2,72.4c3.6-3.6,9.5-3.6,13.2,0l212.8,212.8c1.8,1.8,2.7,4.1,2.7,6.6V462c0,11.5-4.7,22.7-13,30.9
				C454.7,501,444.1,505.4,432.9,505.4z M502.7,269.2c-2.4,0-4.7-0.9-6.5-2.7L254.3,28.9L15.8,260.1c-3.7,3.6-9.6,3.5-13.2-0.2
				c-3.6-3.7-3.5-9.6,0.2-13.2L247.9,9.2c3.6-3.5,9.4-3.5,13,0l248.3,244c3.7,3.6,3.7,9.5,0.1,13.2
				C507.5,268.3,505.1,269.2,502.7,269.2z"/>
		</g>
	</g>
</g>
</svg>
